<?xml version="1.0" standalone="no"?>
<!DOCTYPE svg PUBLIC "-//W3C//DTD SVG 20010904//EN"
 "http://www.w3.org/TR/2001/REC-SVG-20010904/DTD/svg10.dtd">
<svg version="1.0" xmlns="http://www.w3.org/2000/svg"
 width="260.000000pt" height="260.000000pt" viewBox="0 0 260.000000 260.000000"
 preserveAspectRatio="xMidYMid meet">
<metadata>
Created by potrace 1.11, written by Peter Selinger 2001-2013
</metadata>
<g transform="translate(0.000000,260.000000) scale(0.100000,-0.100000)"
fill="#000000" stroke="none">
<path d="M624 1930 c-27 -11 -53 -66 -45 -94 13 -46 38 -68 83 -73 35 -3 49 0
73 20 63 52 24 158 -58 156 -18 0 -41 -4 -53 -9z"/>
<path d="M1733 1929 c-51 -26 -60 -111 -16 -145 43 -32 106 -29 139 7 26 29
25 93 -2 120 -25 24 -89 34 -121 18z"/>
<path d="M668 1615 c-4 -4 -56 -13 -118 -21 -25 -3 -54 -7 -65 -9 -11 -2 -30
-4 -42 -4 -16 -1 -23 -7 -23 -21 0 -15 7 -20 28 -20 50 0 66 -20 59 -73 -6
-42 -116 -453 -173 -643 -26 -88 -55 -134 -84 -134 -26 0 -31 12 -18 48 10 25
9 34 -5 56 -46 70 -151 22 -131 -60 10 -38 64 -74 123 -81 144 -17 246 77 315
291 15 44 28 88 30 100 3 12 36 143 75 293 39 149 71 273 71 275 0 5 -37 8
-42 3z"/>
<path d="M1085 1611 c-167 -44 -325 -260 -325 -444 0 -108 31 -166 115 -210
63 -34 182 -31 256 6 138 67 257 246 265 398 6 116 -29 190 -109 231 -46 23
-150 33 -202 19z m115 -49 c21 -17 23 -27 22 -93 -1 -148 -77 -383 -148 -456
-48 -51 -82 -56 -121 -17 -25 25 -26 29 -19 112 6 89 27 182 64 285 55 154
137 222 202 169z"/>
<path d="M1756 1609 c-15 -4 -57 -11 -94 -15 -37 -3 -74 -8 -82 -10 -8 -1 -23
-3 -32 -3 -11 -1 -18 -9 -18 -21 0 -15 7 -20 28 -20 48 0 65 -20 59 -71 -6
-52 -181 -690 -198 -722 -19 -36 -41 -57 -60 -57 -25 0 -31 14 -18 44 29 63
-46 121 -106 82 -61 -40 -18 -143 67 -160 158 -32 281 74 346 299 21 71 172
651 172 659 0 6 -30 4 -64 -5z"/>
<path d="M2159 1597 c-159 -67 -283 -250 -288 -426 -3 -107 30 -170 114 -214
62 -33 182 -31 256 5 214 106 338 425 223 576 -59 77 -199 104 -305 59z m141
-27 c42 -22 45 -107 9 -265 -32 -136 -77 -242 -125 -292 -46 -48 -77 -55 -115
-24 -75 61 33 497 140 568 37 25 62 29 91 13z"/>
</g>
</svg>
